<?xml version="1.0" encoding="utf-8" ?>
<svg baseProfile="tiny" height="1872px" version="1.2" width="1404px" xmlns="http://www.w3.org/2000/svg" xmlns:ev="http://www.w3.org/2001/xml-events" xmlns:xlink="http://www.w3.org/1999/xlink"><defs><style type="text/css"><![CDATA[
.grid { stroke: black; stroke-width:0.5px; }
.ruler { stroke: black; stroke-width:1px; }
.ruler-major { stroke: black; stroke-width:3px; }
.txt { font-size: 21px; font-family: xkcd; fill: #808080; dominant-baseline: middle;}
]]></style></defs><rect fill="white" height="1872" width="1404" x="0" y="0" /><g id="hlines"><line class="grid" x1="0" x2="1404" y1="44.5714" y2="44.5714" /><line class="grid" x1="0" x2="1404" y1="89.1429" y2="89.1429" /><line class="grid" x1="0" x2="1404" y1="133.7143" y2="133.7143" /><line class="grid" x1="0" x2="1404" y1="178.2857" y2="178.2857" /><line class="grid" x1="0" x2="1404" y1="222.8571" y2="222.8571" /><line class="grid" x1="0" x2="1404" y1="267.4286" y2="267.4286" /><line class="grid" x1="0" x2="1404" y1="312.0" y2="312.0" /><line class="grid" x1="0" x2="1404" y1="356.5714" y2="356.5714" /><line class="grid" x1="0" x2="1404" y1="401.1429" y2="401.1429" /><line class="grid" x1="0" x2="1404" y1="445.7143" y2="445.7143" /><line class="grid" x1="0" x2="1404" y1="490.2857" y2="490.2857" /><line class="grid" x1="0" x2="1404" y1="534.8571" y2="534.8571" /><line class="grid" x1="0" x2="1404" y1="579.4286" y2="579.4286" /><line class="grid" x1="0" x2="1404" y1="624.0" y2="624.0" /><line class="grid" x1="0" x2="1404" y1="668.5714" y2="668.5714" /><line class="grid" x1="0" x2="1404" y1="713.1429" y2="713.1429" /><line class="grid" x1="0" x2="1404" y1="757.7143" y2="757.7143" /><line class="grid" x1="0" x2="1404" y1="802.2857" y2="802.2857" /><line class="grid" x1="0" x2="1404" y1="846.8571" y2="846.8571" /><line class="grid" x1="0" x2="1404" y1="891.4286" y2="891.4286" /><line class="grid" x1="0" x2="1404" y1="936.0" y2="936.0" /><line class="grid" x1="0" x2="1404" y1="980.5714" y2="980.5714" /><line class="grid" x1="0" x2="1404" y1="1025.1429" y2="1025.1429" /><line class="grid" x1="0" x2="1404" y1="1069.7143" y2="1069.7143" /><line class="grid" x1="0" x2="1404" y1="1114.2857" y2="1114.2857" /><line class="grid" x1="0" x2="1404" y1="1158.8571" y2="1158.8571" /><line class="grid" x1="0" x2="1404" y1="1203.4286" y2="1203.4286" /><line class="grid" x1="0" x2="1404" y1="1248.0" y2="1248.0" /><line class="grid" x1="0" x2="1404" y1="1292.5714" y2="1292.5714" /><line class="grid" x1="0" x2="1404" y1="1337.1429" y2="1337.1429" /><line class="grid" x1="0" x2="1404" y1="1381.7143" y2="1381.7143" /><line class="grid" x1="0" x2="1404" y1="1426.2857" y2="1426.2857" /><line class="grid" x1="0" x2="1404" y1="1470.8571" y2="1470.8571" /><line class="grid" x1="0" x2="1404" y1="1515.4286" y2="1515.4286" /><line class="grid" x1="0" x2="1404" y1="1560.0" y2="1560.0" /><line class="grid" x1="0" x2="1404" y1="1604.5714" y2="1604.5714" /><line class="grid" x1="0" x2="1404" y1="1649.1429" y2="1649.1429" /><line class="grid" x1="0" x2="1404" y1="1693.7143" y2="1693.7143" /><line class="grid" x1="0" x2="1404" y1="1738.2857" y2="1738.2857" /><line class="grid" x1="0" x2="1404" y1="1782.8571" y2="1782.8571" /><line class="grid" x1="0" x2="1404" y1="1827.4286" y2="1827.4286" /></g><g id="vlines"><line class="grid" x1="31.2994" x2="31.2994" y1="0" y2="1872" /><line class="grid" x1="76.0127" x2="76.0127" y1="0" y2="1872" /><line class="grid" x1="120.7261" x2="120.7261" y1="0" y2="1872" /><line class="grid" x1="165.4395" x2="165.4395" y1="0" y2="1872" /><line class="grid" x1="210.1529" x2="210.1529" y1="0" y2="1872" /><line class="grid" x1="254.8662" x2="254.8662" y1="0" y2="1872" /><line class="grid" x1="299.5796" x2="299.5796" y1="0" y2="1872" /><line class="grid" x1="344.293" x2="344.293" y1="0" y2="1872" /><line class="grid" x1="389.0064" x2="389.0064" y1="0" y2="1872" /><line class="grid" x1="433.7197" x2="433.7197" y1="0" y2="1872" /><line class="grid" x1="478.4331" x2="478.4331" y1="0" y2="1872" /><line class="grid" x1="523.1465" x2="523.1465" y1="0" y2="1872" /><line class="grid" x1="567.8599" x2="567.8599" y1="0" y2="1872" /><line class="grid" x1="612.5732" x2="612.5732" y1="0" y2="1872" /><line class="grid" x1="657.2866" x2="657.2866" y1="0" y2="1872" /><line class="grid" x1="702.0" x2="702.0" y1="0" y2="1872" /><line class="grid" x1="746.7134" x2="746.7134" y1="0" y2="1872" /><line class="grid" x1="791.4268" x2="791.4268" y1="0" y2="1872" /><line class="grid" x1="836.1401" x2="836.1401" y1="0" y2="1872" /><line class="grid" x1="880.8535" x2="880.8535" y1="0" y2="1872" /><line class="grid" x1="925.5669" x2="925.5669" y1="0" y2="1872" /><line class="grid" x1="970.2803" x2="970.2803" y1="0" y2="1872" /><line class="grid" x1="1014.9936" x2="1014.9936" y1="0" y2="1872" /><line class="grid" x1="1059.707" x2="1059.707" y1="0" y2="1872" /><line class="grid" x1="1104.4204" x2="1104.4204" y1="0" y2="1872" /><line class="grid" x1="1149.1338" x2="1149.1338" y1="0" y2="1872" /><line class="grid" x1="1193.8471" x2="1193.8471" y1="0" y2="1872" /><line class="grid" x1="1238.5605" x2="1238.5605" y1="0" y2="1872" /><line class="grid" x1="1283.2739" x2="1283.2739" y1="0" y2="1872" /><line class="grid" x1="1327.9873" x2="1327.9873" y1="0" y2="1872" /><line class="grid" x1="1372.7006" x2="1372.7006" y1="0" y2="1872" /></g><g id="ruler"><line class="ruler-major" x1="31.2994" x2="31.2994" y1="0" y2="44.5714" /><line class="ruler" x1="40.242" x2="40.242" y1="0" y2="35.6571" /><line class="ruler" x1="49.1847" x2="49.1847" y1="0" y2="35.6571" /><line class="ruler" x1="58.1274" x2="58.1274" y1="0" y2="35.6571" /><line class="ruler" x1="67.0701" x2="67.0701" y1="0" y2="35.6571" /><line class="ruler-major" x1="76.0127" x2="76.0127" y1="0" y2="44.5714" /><line class="ruler" x1="84.9554" x2="84.9554" y1="0" y2="35.6571" /><line class="ruler" x1="93.8981" x2="93.8981" y1="0" y2="35.6571" /><line class="ruler" x1="102.8408" x2="102.8408" y1="0" y2="35.6571" /><line class="ruler" x1="111.7834" x2="111.7834" y1="0" y2="35.6571" /><line class="ruler-major" x1="120.7261" x2="120.7261" y1="0" y2="44.5714" /><text alignment-baseline="hanging" class="txt" text-anchor="middle" x="120.72611464968152" y="63.98571428571428">10</text><line class="ruler" x1="129.6688" x2="129.6688" y1="0" y2="35.6571" /><line class="ruler" x1="138.6115" x2="138.6115" y1="0" y2="35.6571" /><line class="ruler" x1="147.5541" x2="147.5541" y1="0" y2="35.6571" /><line class="ruler" x1="156.4968" x2="156.4968" y1="0" y2="35.6571" /><line class="ruler-major" x1="165.4395" x2="165.4395" y1="0" y2="44.5714" /><line class="ruler" x1="174.3822" x2="174.3822" y1="0" y2="35.6571" /><line class="ruler" x1="183.3248" x2="183.3248" y1="0" y2="35.6571" /><line class="ruler" x1="192.2675" x2="192.2675" y1="0" y2="35.6571" /><line class="ruler" x1="201.2102" x2="201.2102" y1="0" y2="35.6571" /><line class="ruler-major" x1="210.1529" x2="210.1529" y1="0" y2="44.5714" /><text alignment-baseline="hanging" class="txt" text-anchor="middle" x="210.15286624203821" y="63.98571428571428">20</text><line class="ruler" x1="219.0955" x2="219.0955" y1="0" y2="35.6571" /><line class="ruler" x1="228.0382" x2="228.0382" y1="0" y2="35.6571" /><line class="ruler" x1="236.9809" x2="236.9809" y1="0" y2="35.6571" /><line class="ruler" x1="245.9236" x2="245.9236" y1="0" y2="35.6571" /><line class="ruler-major" x1="254.8662" x2="254.8662" y1="0" y2="44.5714" /><line class="ruler" x1="263.8089" x2="263.8089" y1="0" y2="35.6571" /><line class="ruler" x1="272.7516" x2="272.7516" y1="0" y2="35.6571" /><line class="ruler" x1="281.6943" x2="281.6943" y1="0" y2="35.6571" /><line class="ruler" x1="290.6369" x2="290.6369" y1="0" y2="35.6571" /><line class="ruler-major" x1="299.5796" x2="299.5796" y1="0" y2="44.5714" /><text alignment-baseline="hanging" class="txt" text-anchor="middle" x="299.5796178343949" y="63.98571428571428">30</text><line class="ruler" x1="308.5223" x2="308.5223" y1="0" y2="35.6571" /><line class="ruler" x1="317.465" x2="317.465" y1="0" y2="35.6571" /><line class="ruler" x1="326.4076" x2="326.4076" y1="0" y2="35.6571" /><line class="ruler" x1="335.3503" x2="335.3503" y1="0" y2="35.6571" /><line class="ruler-major" x1="344.293" x2="344.293" y1="0" y2="44.5714" /><line class="ruler" x1="353.2357" x2="353.2357" y1="0" y2="35.6571" /><line class="ruler" x1="362.1783" x2="362.1783" y1="0" y2="35.6571" /><line class="ruler" x1="371.121" x2="371.121" y1="0" y2="35.6571" /><line class="ruler" x1="380.0637" x2="380.0637" y1="0" y2="35.6571" /><line class="ruler-major" x1="389.0064" x2="389.0064" y1="0" y2="44.5714" /><text alignment-baseline="hanging" class="txt" text-anchor="middle" x="389.0063694267516" y="63.98571428571428">40</text><line class="ruler" x1="397.949" x2="397.949" y1="0" y2="35.6571" /><line class="ruler" x1="406.8917" x2="406.8917" y1="0" y2="35.6571" /><line class="ruler" x1="415.8344" x2="415.8344" y1="0" y2="35.6571" /><line class="ruler" x1="424.7771" x2="424.7771" y1="0" y2="35.6571" /><line class="ruler-major" x1="433.7197" x2="433.7197" y1="0" y2="44.5714" /><line class="ruler" x1="442.6624" x2="442.6624" y1="0" y2="35.6571" /><line class="ruler" x1="451.6051" x2="451.6051" y1="0" y2="35.6571" /><line class="ruler" x1="460.5478" x2="460.5478" y1="0" y2="35.6571" /><line class="ruler" x1="469.4904" x2="469.4904" y1="0" y2="35.6571" /><line class="ruler-major" x1="478.4331" x2="478.4331" y1="0" y2="44.5714" /><text alignment-baseline="hanging" class="txt" text-anchor="middle" x="478.4331210191082" y="63.98571428571428">50</text><line class="ruler" x1="487.3758" x2="487.3758" y1="0" y2="35.6571" /><line class="ruler" x1="496.3185" x2="496.3185" y1="0" y2="35.6571" /><line class="ruler" x1="505.2611" x2="505.2611" y1="0" y2="35.6571" /><line class="ruler" x1="514.2038" x2="514.2038" y1="0" y2="35.6571" /><line class="ruler-major" x1="523.1465" x2="523.1465" y1="0" y2="44.5714" /><line class="ruler" x1="532.0892" x2="532.0892" y1="0" y2="35.6571" /><line class="ruler" x1="541.0318" x2="541.0318" y1="0" y2="35.6571" /><line class="ruler" x1="549.9745" x2="549.9745" y1="0" y2="35.6571" /><line class="ruler" x1="558.9172" x2="558.9172" y1="0" y2="35.6571" /><line class="ruler-major" x1="567.8599" x2="567.8599" y1="0" y2="44.5714" /><text alignment-baseline="hanging" class="txt" text-anchor="middle" x="567.859872611465" y="63.98571428571428">60</text><line class="ruler" x1="576.8025" x2="576.8025" y1="0" y2="35.6571" /><line class="ruler" x1="585.7452" x2="585.7452" y1="0" y2="35.6571" /><line class="ruler" x1="594.6879" x2="594.6879" y1="0" y2="35.6571" /><line class="ruler" x1="603.6306" x2="603.6306" y1="0" y2="35.6571" /><line class="ruler-major" x1="612.5732" x2="612.5732" y1="0" y2="44.5714" /><line class="ruler" x1="621.5159" x2="621.5159" y1="0" y2="35.6571" /><line class="ruler" x1="630.4586" x2="630.4586" y1="0" y2="35.6571" /><line class="ruler" x1="639.4013" x2="639.4013" y1="0" y2="35.6571" /><line class="ruler" x1="648.3439" x2="648.3439" y1="0" y2="35.6571" /><line class="ruler-major" x1="657.2866" x2="657.2866" y1="0" y2="44.5714" /><text alignment-baseline="hanging" class="txt" text-anchor="middle" x="657.2866242038217" y="63.98571428571428">70</text><line class="ruler" x1="666.2293" x2="666.2293" y1="0" y2="35.6571" /><line class="ruler" x1="675.172" x2="675.172" y1="0" y2="35.6571" /><line class="ruler" x1="684.1146" x2="684.1146" y1="0" y2="35.6571" /><line class="ruler" x1="693.0573" x2="693.0573" y1="0" y2="35.6571" /><line class="ruler-major" x1="702.0" x2="702.0" y1="0" y2="44.5714" /><line class="ruler" x1="710.9427" x2="710.9427" y1="0" y2="35.6571" /><line class="ruler" x1="719.8854" x2="719.8854" y1="0" y2="35.6571" /><line class="ruler" x1="728.828" x2="728.828" y1="0" y2="35.6571" /><line class="ruler" x1="737.7707" x2="737.7707" y1="0" y2="35.6571" /><line class="ruler-major" x1="746.7134" x2="746.7134" y1="0" y2="44.5714" /><text alignment-baseline="hanging" class="txt" text-anchor="middle" x="746.7133757961783" y="63.98571428571428">80</text><line class="ruler" x1="755.6561" x2="755.6561" y1="0" y2="35.6571" /><line class="ruler" x1="764.5987" x2="764.5987" y1="0" y2="35.6571" /><line class="ruler" x1="773.5414" x2="773.5414" y1="0" y2="35.6571" /><line class="ruler" x1="782.4841" x2="782.4841" y1="0" y2="35.6571" /><line class="ruler-major" x1="791.4268" x2="791.4268" y1="0" y2="44.5714" /><line class="ruler" x1="800.3694" x2="800.3694" y1="0" y2="35.6571" /><line class="ruler" x1="809.3121" x2="809.3121" y1="0" y2="35.6571" /><line class="ruler" x1="818.2548" x2="818.2548" y1="0" y2="35.6571" /><line class="ruler" x1="827.1975" x2="827.1975" y1="0" y2="35.6571" /><line class="ruler-major" x1="836.1401" x2="836.1401" y1="0" y2="44.5714" /><text alignment-baseline="hanging" class="txt" text-anchor="middle" x="836.140127388535" y="63.98571428571428">90</text><line class="ruler" x1="845.0828" x2="845.0828" y1="0" y2="35.6571" /><line class="ruler" x1="854.0255" x2="854.0255" y1="0" y2="35.6571" /><line class="ruler" x1="862.9682" x2="862.9682" y1="0" y2="35.6571" /><line class="ruler" x1="871.9108" x2="871.9108" y1="0" y2="35.6571" /><line class="ruler-major" x1="880.8535" x2="880.8535" y1="0" y2="44.5714" /><line class="ruler" x1="889.7962" x2="889.7962" y1="0" y2="35.6571" /><line class="ruler" x1="898.7389" x2="898.7389" y1="0" y2="35.6571" /><line class="ruler" x1="907.6815" x2="907.6815" y1="0" y2="35.6571" /><line class="ruler" x1="916.6242" x2="916.6242" y1="0" y2="35.6571" /><line class="ruler-major" x1="925.5669" x2="925.5669" y1="0" y2="44.5714" /><text alignment-baseline="hanging" class="txt" text-anchor="middle" x="925.5668789808917" y="63.98571428571428">100</text><line class="ruler" x1="934.5096" x2="934.5096" y1="0" y2="35.6571" /><line class="ruler" x1="943.4522" x2="943.4522" y1="0" y2="35.6571" /><line class="ruler" x1="952.3949" x2="952.3949" y1="0" y2="35.6571" /><line class="ruler" x1="961.3376" x2="961.3376" y1="0" y2="35.6571" /><line class="ruler-major" x1="970.2803" x2="970.2803" y1="0" y2="44.5714" /><line class="ruler" x1="979.2229" x2="979.2229" y1="0" y2="35.6571" /><line class="ruler" x1="988.1656" x2="988.1656" y1="0" y2="35.6571" /><line class="ruler" x1="997.1083" x2="997.1083" y1="0" y2="35.6571" /><line class="ruler" x1="1006.051" x2="1006.051" y1="0" y2="35.6571" /><line class="ruler-major" x1="1014.9936" x2="1014.9936" y1="0" y2="44.5714" /><text alignment-baseline="hanging" class="txt" text-anchor="middle" x="1014.9936305732483" y="63.98571428571428">110</text><line class="ruler" x1="1023.9363" x2="1023.9363" y1="0" y2="35.6571" /><line class="ruler" x1="1032.879" x2="1032.879" y1="0" y2="35.6571" /><line class="ruler" x1="1041.8217" x2="1041.8217" y1="0" y2="35.6571" /><line class="ruler" x1="1050.7643" x2="1050.7643" y1="0" y2="35.6571" /><line class="ruler-major" x1="1059.707" x2="1059.707" y1="0" y2="44.5714" /><line class="ruler" x1="1068.6497" x2="1068.6497" y1="0" y2="35.6571" /><line class="ruler" x1="1077.5924" x2="1077.5924" y1="0" y2="35.6571" /><line class="ruler" x1="1086.535" x2="1086.535" y1="0" y2="35.6571" /><line class="ruler" x1="1095.4777" x2="1095.4777" y1="0" y2="35.6571" /><line class="ruler-major" x1="1104.4204" x2="1104.4204" y1="0" y2="44.5714" /><text alignment-baseline="hanging" class="txt" text-anchor="middle" x="1104.4203821656051" y="63.98571428571428">120</text><line class="ruler" x1="1113.3631" x2="1113.3631" y1="0" y2="35.6571" /><line class="ruler" x1="1122.3057" x2="1122.3057" y1="0" y2="35.6571" /><line class="ruler" x1="1131.2484" x2="1131.2484" y1="0" y2="35.6571" /><line class="ruler" x1="1140.1911" x2="1140.1911" y1="0" y2="35.6571" /><line class="ruler-major" x1="1149.1338" x2="1149.1338" y1="0" y2="44.5714" /><line class="ruler" x1="1158.0764" x2="1158.0764" y1="0" y2="35.6571" /><line class="ruler" x1="1167.0191" x2="1167.0191" y1="0" y2="35.6571" /><line class="ruler" x1="1175.9618" x2="1175.9618" y1="0" y2="35.6571" /><line class="ruler" x1="1184.9045" x2="1184.9045" y1="0" y2="35.6571" /><line class="ruler-major" x1="1193.8471" x2="1193.8471" y1="0" y2="44.5714" /><text alignment-baseline="hanging" class="txt" text-anchor="middle" x="1193.8471337579617" y="63.98571428571428">130</text><line class="ruler" x1="1202.7898" x2="1202.7898" y1="0" y2="35.6571" /><line class="ruler" x1="1211.7325" x2="1211.7325" y1="0" y2="35.6571" /><line class="ruler" x1="1220.6752" x2="1220.6752" y1="0" y2="35.6571" /><line class="ruler" x1="1229.6178" x2="1229.6178" y1="0" y2="35.6571" /><line class="ruler-major" x1="1238.5605" x2="1238.5605" y1="0" y2="44.5714" /><line class="ruler" x1="1247.5032" x2="1247.5032" y1="0" y2="35.6571" /><line class="ruler" x1="1256.4459" x2="1256.4459" y1="0" y2="35.6571" /><line class="ruler" x1="1265.3885" x2="1265.3885" y1="0" y2="35.6571" /><line class="ruler" x1="1274.3312" x2="1274.3312" y1="0" y2="35.6571" /><line class="ruler-major" x1="1283.2739" x2="1283.2739" y1="0" y2="44.5714" /><text alignment-baseline="hanging" class="txt" text-anchor="middle" x="1283.2738853503186" y="63.98571428571428">140</text><line class="ruler" x1="1292.2166" x2="1292.2166" y1="0" y2="35.6571" /><line class="ruler" x1="1301.1592" x2="1301.1592" y1="0" y2="35.6571" /><line class="ruler" x1="1310.1019" x2="1310.1019" y1="0" y2="35.6571" /><line class="ruler" x1="1319.0446" x2="1319.0446" y1="0" y2="35.6571" /><line class="ruler-major" x1="1327.9873" x2="1327.9873" y1="0" y2="44.5714" /><line class="ruler" x1="1336.9299" x2="1336.9299" y1="0" y2="35.6571" /><line class="ruler" x1="1345.8726" x2="1345.8726" y1="0" y2="35.6571" /><line class="ruler" x1="1354.8153" x2="1354.8153" y1="0" y2="35.6571" /><line class="ruler" x1="1363.758" x2="1363.758" y1="0" y2="35.6571" /><line class="ruler-major" x1="1372.7006" x2="1372.7006" y1="0" y2="44.5714" /><line class="ruler-major" x1="31.2994" x2="31.2994" y1="1872" y2="1827.4286" /><line class="ruler" x1="40.242" x2="40.242" y1="1872" y2="1836.3429" /><line class="ruler" x1="49.1847" x2="49.1847" y1="1872" y2="1836.3429" /><line class="ruler" x1="58.1274" x2="58.1274" y1="1872" y2="1836.3429" /><line class="ruler" x1="67.0701" x2="67.0701" y1="1872" y2="1836.3429" /><line class="ruler-major" x1="76.0127" x2="76.0127" y1="1872" y2="1827.4286" /><line class="ruler" x1="84.9554" x2="84.9554" y1="1872" y2="1836.3429" /><line class="ruler" x1="93.8981" x2="93.8981" y1="1872" y2="1836.3429" /><line class="ruler" x1="102.8408" x2="102.8408" y1="1872" y2="1836.3429" /><line class="ruler" x1="111.7834" x2="111.7834" y1="1872" y2="1836.3429" /><line class="ruler-major" x1="120.7261" x2="120.7261" y1="1872" y2="1827.4286" /><text alignment-baseline="hanging" class="txt" text-anchor="middle" x="120.72611464968152" y="1808.0142857142857">10</text><line class="ruler" x1="129.6688" x2="129.6688" y1="1872" y2="1836.3429" /><line class="ruler" x1="138.6115" x2="138.6115" y1="1872" y2="1836.3429" /><line class="ruler" x1="147.5541" x2="147.5541" y1="1872" y2="1836.3429" /><line class="ruler" x1="156.4968" x2="156.4968" y1="1872" y2="1836.3429" /><line class="ruler-major" x1="165.4395" x2="165.4395" y1="1872" y2="1827.4286" /><line class="ruler" x1="174.3822" x2="174.3822" y1="1872" y2="1836.3429" /><line class="ruler" x1="183.3248" x2="183.3248" y1="1872" y2="1836.3429" /><line class="ruler" x1="192.2675" x2="192.2675" y1="1872" y2="1836.3429" /><line class="ruler" x1="201.2102" x2="201.2102" y1="1872" y2="1836.3429" /><line class="ruler-major" x1="210.1529" x2="210.1529" y1="1872" y2="1827.4286" /><text alignment-baseline="hanging" class="txt" text-anchor="middle" x="210.15286624203821" y="1808.0142857142857">20</text><line class="ruler" x1="219.0955" x2="219.0955" y1="1872" y2="1836.3429" /><line class="ruler" x1="228.0382" x2="228.0382" y1="1872" y2="1836.3429" /><line class="ruler" x1="236.9809" x2="236.9809" y1="1872" y2="1836.3429" /><line class="ruler" x1="245.9236" x2="245.9236" y1="1872" y2="1836.3429" /><line class="ruler-major" x1="254.8662" x2="254.8662" y1="1872" y2="1827.4286" /><line class="ruler" x1="263.8089" x2="263.8089" y1="1872" y2="1836.3429" /><line class="ruler" x1="272.7516" x2="272.7516" y1="1872" y2="1836.3429" /><line class="ruler" x1="281.6943" x2="281.6943" y1="1872" y2="1836.3429" /><line class="ruler" x1="290.6369" x2="290.6369" y1="1872" y2="1836.3429" /><line class="ruler-major" x1="299.5796" x2="299.5796" y1="1872" y2="1827.4286" /><text alignment-baseline="hanging" class="txt" text-anchor="middle" x="299.5796178343949" y="1808.0142857142857">30</text><line class="ruler" x1="308.5223" x2="308.5223" y1="1872" y2="1836.3429" /><line class="ruler" x1="317.465" x2="317.465" y1="1872" y2="1836.3429" /><line class="ruler" x1="326.4076" x2="326.4076" y1="1872" y2="1836.3429" /><line class="ruler" x1="335.3503" x2="335.3503" y1="1872" y2="1836.3429" /><line class="ruler-major" x1="344.293" x2="344.293" y1="1872" y2="1827.4286" /><line class="ruler" x1="353.2357" x2="353.2357" y1="1872" y2="1836.3429" /><line class="ruler" x1="362.1783" x2="362.1783" y1="1872" y2="1836.3429" /><line class="ruler" x1="371.121" x2="371.121" y1="1872" y2="1836.3429" /><line class="ruler" x1="380.0637" x2="380.0637" y1="1872" y2="1836.3429" /><line class="ruler-major" x1="389.0064" x2="389.0064" y1="1872" y2="1827.4286" /><text alignment-baseline="hanging" class="txt" text-anchor="middle" x="389.0063694267516" y="1808.0142857142857">40</text><line class="ruler" x1="397.949" x2="397.949" y1="1872" y2="1836.3429" /><line class="ruler" x1="406.8917" x2="406.8917" y1="1872" y2="1836.3429" /><line class="ruler" x1="415.8344" x2="415.8344" y1="1872" y2="1836.3429" /><line class="ruler" x1="424.7771" x2="424.7771" y1="1872" y2="1836.3429" /><line class="ruler-major" x1="433.7197" x2="433.7197" y1="1872" y2="1827.4286" /><line class="ruler" x1="442.6624" x2="442.6624" y1="1872" y2="1836.3429" /><line class="ruler" x1="451.6051" x2="451.6051" y1="1872" y2="1836.3429" /><line class="ruler" x1="460.5478" x2="460.5478" y1="1872" y2="1836.3429" /><line class="ruler" x1="469.4904" x2="469.4904" y1="1872" y2="1836.3429" /><line class="ruler-major" x1="478.4331" x2="478.4331" y1="1872" y2="1827.4286" /><text alignment-baseline="hanging" class="txt" text-anchor="middle" x="478.4331210191082" y="1808.0142857142857">50</text><line class="ruler" x1="487.3758" x2="487.3758" y1="1872" y2="1836.3429" /><line class="ruler" x1="496.3185" x2="496.3185" y1="1872" y2="1836.3429" /><line class="ruler" x1="505.2611" x2="505.2611" y1="1872" y2="1836.3429" /><line class="ruler" x1="514.2038" x2="514.2038" y1="1872" y2="1836.3429" /><line class="ruler-major" x1="523.1465" x2="523.1465" y1="1872" y2="1827.4286" /><line class="ruler" x1="532.0892" x2="532.0892" y1="1872" y2="1836.3429" /><line class="ruler" x1="541.0318" x2="541.0318" y1="1872" y2="1836.3429" /><line class="ruler" x1="549.9745" x2="549.9745" y1="1872" y2="1836.3429" /><line class="ruler" x1="558.9172" x2="558.9172" y1="1872" y2="1836.3429" /><line class="ruler-major" x1="567.8599" x2="567.8599" y1="1872" y2="1827.4286" /><text alignment-baseline="hanging" class="txt" text-anchor="middle" x="567.859872611465" y="1808.0142857142857">60</text><line class="ruler" x1="576.8025" x2="576.8025" y1="1872" y2="1836.3429" /><line class="ruler" x1="585.7452" x2="585.7452" y1="1872" y2="1836.3429" /><line class="ruler" x1="594.6879" x2="594.6879" y1="1872" y2="1836.3429" /><line class="ruler" x1="603.6306" x2="603.6306" y1="1872" y2="1836.3429" /><line class="ruler-major" x1="612.5732" x2="612.5732" y1="1872" y2="1827.4286" /><line class="ruler" x1="621.5159" x2="621.5159" y1="1872" y2="1836.3429" /><line class="ruler" x1="630.4586" x2="630.4586" y1="1872" y2="1836.3429" /><line class="ruler" x1="639.4013" x2="639.4013" y1="1872" y2="1836.3429" /><line class="ruler" x1="648.3439" x2="648.3439" y1="1872" y2="1836.3429" /><line class="ruler-major" x1="657.2866" x2="657.2866" y1="1872" y2="1827.4286" /><text alignment-baseline="hanging" class="txt" text-anchor="middle" x="657.2866242038217" y="1808.0142857142857">70</text><line class="ruler" x1="666.2293" x2="666.2293" y1="1872" y2="1836.3429" /><line class="ruler" x1="675.172" x2="675.172" y1="1872" y2="1836.3429" /><line class="ruler" x1="684.1146" x2="684.1146" y1="1872" y2="1836.3429" /><line class="ruler" x1="693.0573" x2="693.0573" y1="1872" y2="1836.3429" /><line class="ruler-major" x1="702.0" x2="702.0" y1="1872" y2="1827.4286" /><line class="ruler" x1="710.9427" x2="710.9427" y1="1872" y2="1836.3429" /><line class="ruler" x1="719.8854" x2="719.8854" y1="1872" y2="1836.3429" /><line class="ruler" x1="728.828" x2="728.828" y1="1872" y2="1836.3429" /><line class="ruler" x1="737.7707" x2="737.7707" y1="1872" y2="1836.3429" /><line class="ruler-major" x1="746.7134" x2="746.7134" y1="1872" y2="1827.4286" /><text alignment-baseline="hanging" class="txt" text-anchor="middle" x="746.7133757961783" y="1808.0142857142857">80</text><line class="ruler" x1="755.6561" x2="755.6561" y1="1872" y2="1836.3429" /><line class="ruler" x1="764.5987" x2="764.5987" y1="1872" y2="1836.3429" /><line class="ruler" x1="773.5414" x2="773.5414" y1="1872" y2="1836.3429" /><line class="ruler" x1="782.4841" x2="782.4841" y1="1872" y2="1836.3429" /><line class="ruler-major" x1="791.4268" x2="791.4268" y1="1872" y2="1827.4286" /><line class="ruler" x1="800.3694" x2="800.3694" y1="1872" y2="1836.3429" /><line class="ruler" x1="809.3121" x2="809.3121" y1="1872" y2="1836.3429" /><line class="ruler" x1="818.2548" x2="818.2548" y1="1872" y2="1836.3429" /><line class="ruler" x1="827.1975" x2="827.1975" y1="1872" y2="1836.3429" /><line class="ruler-major" x1="836.1401" x2="836.1401" y1="1872" y2="1827.4286" /><text alignment-baseline="hanging" class="txt" text-anchor="middle" x="836.140127388535" y="1808.0142857142857">90</text><line class="ruler" x1="845.0828" x2="845.0828" y1="1872" y2="1836.3429" /><line class="ruler" x1="854.0255" x2="854.0255" y1="1872" y2="1836.3429" /><line class="ruler" x1="862.9682" x2="862.9682" y1="1872" y2="1836.3429" /><line class="ruler" x1="871.9108" x2="871.9108" y1="1872" y2="1836.3429" /><line class="ruler-major" x1="880.8535" x2="880.8535" y1="1872" y2="1827.4286" /><line class="ruler" x1="889.7962" x2="889.7962" y1="1872" y2="1836.3429" /><line class="ruler" x1="898.7389" x2="898.7389" y1="1872" y2="1836.3429" /><line class="ruler" x1="907.6815" x2="907.6815" y1="1872" y2="1836.3429" /><line class="ruler" x1="916.6242" x2="916.6242" y1="1872" y2="1836.3429" /><line class="ruler-major" x1="925.5669" x2="925.5669" y1="1872" y2="1827.4286" /><text alignment-baseline="hanging" class="txt" text-anchor="middle" x="925.5668789808917" y="1808.0142857142857">100</text><line class="ruler" x1="934.5096" x2="934.5096" y1="1872" y2="1836.3429" /><line class="ruler" x1="943.4522" x2="943.4522" y1="1872" y2="1836.3429" /><line class="ruler" x1="952.3949" x2="952.3949" y1="1872" y2="1836.3429" /><line class="ruler" x1="961.3376" x2="961.3376" y1="1872" y2="1836.3429" /><line class="ruler-major" x1="970.2803" x2="970.2803" y1="1872" y2="1827.4286" /><line class="ruler" x1="979.2229" x2="979.2229" y1="1872" y2="1836.3429" /><line class="ruler" x1="988.1656" x2="988.1656" y1="1872" y2="1836.3429" /><line class="ruler" x1="997.1083" x2="997.1083" y1="1872" y2="1836.3429" /><line class="ruler" x1="1006.051" x2="1006.051" y1="1872" y2="1836.3429" /><line class="ruler-major" x1="1014.9936" x2="1014.9936" y1="1872" y2="1827.4286" /><text alignment-baseline="hanging" class="txt" text-anchor="middle" x="1014.9936305732483" y="1808.0142857142857">110</text><line class="ruler" x1="1023.9363" x2="1023.9363" y1="1872" y2="1836.3429" /><line class="ruler" x1="1032.879" x2="1032.879" y1="1872" y2="1836.3429" /><line class="ruler" x1="1041.8217" x2="1041.8217" y1="1872" y2="1836.3429" /><line class="ruler" x1="1050.7643" x2="1050.7643" y1="1872" y2="1836.3429" /><line class="ruler-major" x1="1059.707" x2="1059.707" y1="1872" y2="1827.4286" /><line class="ruler" x1="1068.6497" x2="1068.6497" y1="1872" y2="1836.3429" /><line class="ruler" x1="1077.5924" x2="1077.5924" y1="1872" y2="1836.3429" /><line class="ruler" x1="1086.535" x2="1086.535" y1="1872" y2="1836.3429" /><line class="ruler" x1="1095.4777" x2="1095.4777" y1="1872" y2="1836.3429" /><line class="ruler-major" x1="1104.4204" x2="1104.4204" y1="1872" y2="1827.4286" /><text alignment-baseline="hanging" class="txt" text-anchor="middle" x="1104.4203821656051" y="1808.0142857142857">120</text><line class="ruler" x1="1113.3631" x2="1113.3631" y1="1872" y2="1836.3429" /><line class="ruler" x1="1122.3057" x2="1122.3057" y1="1872" y2="1836.3429" /><line class="ruler" x1="1131.2484" x2="1131.2484" y1="1872" y2="1836.3429" /><line class="ruler" x1="1140.1911" x2="1140.1911" y1="1872" y2="1836.3429" /><line class="ruler-major" x1="1149.1338" x2="1149.1338" y1="1872" y2="1827.4286" /><line class="ruler" x1="1158.0764" x2="1158.0764" y1="1872" y2="1836.3429" /><line class="ruler" x1="1167.0191" x2="1167.0191" y1="1872" y2="1836.3429" /><line class="ruler" x1="1175.9618" x2="1175.9618" y1="1872" y2="1836.3429" /><line class="ruler" x1="1184.9045" x2="1184.9045" y1="1872" y2="1836.3429" /><line class="ruler-major" x1="1193.8471" x2="1193.8471" y1="1872" y2="1827.4286" /><text alignment-baseline="hanging" class="txt" text-anchor="middle" x="1193.8471337579617" y="1808.0142857142857">130</text><line class="ruler" x1="1202.7898" x2="1202.7898" y1="1872" y2="1836.3429" /><line class="ruler" x1="1211.7325" x2="1211.7325" y1="1872" y2="1836.3429" /><line class="ruler" x1="1220.6752" x2="1220.6752" y1="1872" y2="1836.3429" /><line class="ruler" x1="1229.6178" x2="1229.6178" y1="1872" y2="1836.3429" /><line class="ruler-major" x1="1238.5605" x2="1238.5605" y1="1872" y2="1827.4286" /><line class="ruler" x1="1247.5032" x2="1247.5032" y1="1872" y2="1836.3429" /><line class="ruler" x1="1256.4459" x2="1256.4459" y1="1872" y2="1836.3429" /><line class="ruler" x1="1265.3885" x2="1265.3885" y1="1872" y2="1836.3429" /><line class="ruler" x1="1274.3312" x2="1274.3312" y1="1872" y2="1836.3429" /><line class="ruler-major" x1="1283.2739" x2="1283.2739" y1="1872" y2="1827.4286" /><text alignment-baseline="hanging" class="txt" text-anchor="middle" x="1283.2738853503186" y="1808.0142857142857">140</text><line class="ruler" x1="1292.2166" x2="1292.2166" y1="1872" y2="1836.3429" /><line class="ruler" x1="1301.1592" x2="1301.1592" y1="1872" y2="1836.3429" /><line class="ruler" x1="1310.1019" x2="1310.1019" y1="1872" y2="1836.3429" /><line class="ruler" x1="1319.0446" x2="1319.0446" y1="1872" y2="1836.3429" /><line class="ruler-major" x1="1327.9873" x2="1327.9873" y1="1872" y2="1827.4286" /><line class="ruler" x1="1336.9299" x2="1336.9299" y1="1872" y2="1836.3429" /><line class="ruler" x1="1345.8726" x2="1345.8726" y1="1872" y2="1836.3429" /><line class="ruler" x1="1354.8153" x2="1354.8153" y1="1872" y2="1836.3429" /><line class="ruler" x1="1363.758" x2="1363.758" y1="1872" y2="1836.3429" /><line class="ruler-major" x1="1372.7006" x2="1372.7006" y1="1872" y2="1827.4286" /><line class="ruler-major" x1="0" x2="31.2994" y1="44.5714" y2="44.5714" /><line class="ruler" x1="0" x2="22.3567" y1="53.4857" y2="53.4857" /><line class="ruler" x1="0" x2="22.3567" y1="62.4" y2="62.4" /><line class="ruler" x1="0" x2="22.3567" y1="71.3143" y2="71.3143" /><line class="ruler" x1="0" x2="22.3567" y1="80.2286" y2="80.2286" /><line class="ruler-major" x1="0" x2="31.2994" y1="89.1429" y2="89.1429" /><line class="ruler" x1="0" x2="22.3567" y1="98.0571" y2="98.0571" /><line class="ruler" x1="0" x2="22.3567" y1="106.9714" y2="106.9714" /><line class="ruler" x1="0" x2="22.3567" y1="115.8857" y2="115.8857" /><line class="ruler" x1="0" x2="22.3567" y1="124.8" y2="124.8" /><line class="ruler-major" x1="0" x2="31.2994" y1="133.7143" y2="133.7143" /><text class="txt" text-anchor="start" x="40.24203821656051" y="133.7142857142857">190</text><line class="ruler" x1="0" x2="22.3567" y1="142.6286" y2="142.6286" /><line class="ruler" x1="0" x2="22.3567" y1="151.5429" y2="151.5429" /><line class="ruler" x1="0" x2="22.3567" y1="160.4571" y2="160.4571" /><line class="ruler" x1="0" x2="22.3567" y1="169.3714" y2="169.3714" /><line class="ruler-major" x1="0" x2="31.2994" y1="178.2857" y2="178.2857" /><line class="ruler" x1="0" x2="22.3567" y1="187.2" y2="187.2" /><line class="ruler" x1="0" x2="22.3567" y1="196.1143" y2="196.1143" /><line class="ruler" x1="0" x2="22.3567" y1="205.0286" y2="205.0286" /><line class="ruler" x1="0" x2="22.3567" y1="213.9429" y2="213.9429" /><line class="ruler-major" x1="0" x2="31.2994" y1="222.8571" y2="222.8571" /><text class="txt" text-anchor="start" x="40.24203821656051" y="222.85714285714283">180</text><line class="ruler" x1="0" x2="22.3567" y1="231.7714" y2="231.7714" /><line class="ruler" x1="0" x2="22.3567" y1="240.6857" y2="240.6857" /><line class="ruler" x1="0" x2="22.3567" y1="249.6" y2="249.6" /><line class="ruler" x1="0" x2="22.3567" y1="258.5143" y2="258.5143" /><line class="ruler-major" x1="0" x2="31.2994" y1="267.4286" y2="267.4286" /><line class="ruler" x1="0" x2="22.3567" y1="276.3429" y2="276.3429" /><line class="ruler" x1="0" x2="22.3567" y1="285.2571" y2="285.2571" /><line class="ruler" x1="0" x2="22.3567" y1="294.1714" y2="294.1714" /><line class="ruler" x1="0" x2="22.3567" y1="303.0857" y2="303.0857" /><line class="ruler-major" x1="0" x2="31.2994" y1="312.0" y2="312.0" /><text class="txt" text-anchor="start" x="40.24203821656051" y="312.0">170</text><line class="ruler" x1="0" x2="22.3567" y1="320.9143" y2="320.9143" /><line class="ruler" x1="0" x2="22.3567" y1="329.8286" y2="329.8286" /><line class="ruler" x1="0" x2="22.3567" y1="338.7429" y2="338.7429" /><line class="ruler" x1="0" x2="22.3567" y1="347.6571" y2="347.6571" /><line class="ruler-major" x1="0" x2="31.2994" y1="356.5714" y2="356.5714" /><line class="ruler" x1="0" x2="22.3567" y1="365.4857" y2="365.4857" /><line class="ruler" x1="0" x2="22.3567" y1="374.4" y2="374.4" /><line class="ruler" x1="0" x2="22.3567" y1="383.3143" y2="383.3143" /><line class="ruler" x1="0" x2="22.3567" y1="392.2286" y2="392.2286" /><line class="ruler-major" x1="0" x2="31.2994" y1="401.1429" y2="401.1429" /><text class="txt" text-anchor="start" x="40.24203821656051" y="401.1428571428571">160</text><line class="ruler" x1="0" x2="22.3567" y1="410.0571" y2="410.0571" /><line class="ruler" x1="0" x2="22.3567" y1="418.9714" y2="418.9714" /><line class="ruler" x1="0" x2="22.3567" y1="427.8857" y2="427.8857" /><line class="ruler" x1="0" x2="22.3567" y1="436.8" y2="436.8" /><line class="ruler-major" x1="0" x2="31.2994" y1="445.7143" y2="445.7143" /><line class="ruler" x1="0" x2="22.3567" y1="454.6286" y2="454.6286" /><line class="ruler" x1="0" x2="22.3567" y1="463.5429" y2="463.5429" /><line class="ruler" x1="0" x2="22.3567" y1="472.4571" y2="472.4571" /><line class="ruler" x1="0" x2="22.3567" y1="481.3714" y2="481.3714" /><line class="ruler-major" x1="0" x2="31.2994" y1="490.2857" y2="490.2857" /><text class="txt" text-anchor="start" x="40.24203821656051" y="490.28571428571433">150</text><line class="ruler" x1="0" x2="22.3567" y1="499.2" y2="499.2" /><line class="ruler" x1="0" x2="22.3567" y1="508.1143" y2="508.1143" /><line class="ruler" x1="0" x2="22.3567" y1="517.0286" y2="517.0286" /><line class="ruler" x1="0" x2="22.3567" y1="525.9429" y2="525.9429" /><line class="ruler-major" x1="0" x2="31.2994" y1="534.8571" y2="534.8571" /><line class="ruler" x1="0" x2="22.3567" y1="543.7714" y2="543.7714" /><line class="ruler" x1="0" x2="22.3567" y1="552.6857" y2="552.6857" /><line class="ruler" x1="0" x2="22.3567" y1="561.6" y2="561.6" /><line class="ruler" x1="0" x2="22.3567" y1="570.5143" y2="570.5143" /><line class="ruler-major" x1="0" x2="31.2994" y1="579.4286" y2="579.4286" /><text class="txt" text-anchor="start" x="40.24203821656051" y="579.4285714285714">140</text><line class="ruler" x1="0" x2="22.3567" y1="588.3429" y2="588.3429" /><line class="ruler" x1="0" x2="22.3567" y1="597.2571" y2="597.2571" /><line class="ruler" x1="0" x2="22.3567" y1="606.1714" y2="606.1714" /><line class="ruler" x1="0" x2="22.3567" y1="615.0857" y2="615.0857" /><line class="ruler-major" x1="0" x2="31.2994" y1="624.0" y2="624.0" /><line class="ruler" x1="0" x2="22.3567" y1="632.9143" y2="632.9143" /><line class="ruler" x1="0" x2="22.3567" y1="641.8286" y2="641.8286" /><line class="ruler" x1="0" x2="22.3567" y1="650.7429" y2="650.7429" /><line class="ruler" x1="0" x2="22.3567" y1="659.6571" y2="659.6571" /><line class="ruler-major" x1="0" x2="31.2994" y1="668.5714" y2="668.5714" /><text class="txt" text-anchor="start" x="40.24203821656051" y="668.5714285714286">130</text><line class="ruler" x1="0" x2="22.3567" y1="677.4857" y2="677.4857" /><line class="ruler" x1="0" x2="22.3567" y1="686.4" y2="686.4" /><line class="ruler" x1="0" x2="22.3567" y1="695.3143" y2="695.3143" /><line class="ruler" x1="0" x2="22.3567" y1="704.2286" y2="704.2286" /><line class="ruler-major" x1="0" x2="31.2994" y1="713.1429" y2="713.1429" /><line class="ruler" x1="0" x2="22.3567" y1="722.0571" y2="722.0571" /><line class="ruler" x1="0" x2="22.3567" y1="730.9714" y2="730.9714" /><line class="ruler" x1="0" x2="22.3567" y1="739.8857" y2="739.8857" /><line class="ruler" x1="0" x2="22.3567" y1="748.8" y2="748.8" /><line class="ruler-major" x1="0" x2="31.2994" y1="757.7143" y2="757.7143" /><text class="txt" text-anchor="start" x="40.24203821656051" y="757.7142857142858">120</text><line class="ruler" x1="0" x2="22.3567" y1="766.6286" y2="766.6286" /><line class="ruler" x1="0" x2="22.3567" y1="775.5429" y2="775.5429" /><line class="ruler" x1="0" x2="22.3567" y1="784.4571" y2="784.4571" /><line class="ruler" x1="0" x2="22.3567" y1="793.3714" y2="793.3714" /><line class="ruler-major" x1="0" x2="31.2994" y1="802.2857" y2="802.2857" /><line class="ruler" x1="0" x2="22.3567" y1="811.2" y2="811.2" /><line class="ruler" x1="0" x2="22.3567" y1="820.1143" y2="820.1143" /><line class="ruler" x1="0" x2="22.3567" y1="829.0286" y2="829.0286" /><line class="ruler" x1="0" x2="22.3567" y1="837.9429" y2="837.9429" /><line class="ruler-major" x1="0" x2="31.2994" y1="846.8571" y2="846.8571" /><text class="txt" text-anchor="start" x="40.24203821656051" y="846.8571428571429">110</text><line class="ruler" x1="0" x2="22.3567" y1="855.7714" y2="855.7714" /><line class="ruler" x1="0" x2="22.3567" y1="864.6857" y2="864.6857" /><line class="ruler" x1="0" x2="22.3567" y1="873.6" y2="873.6" /><line class="ruler" x1="0" x2="22.3567" y1="882.5143" y2="882.5143" /><line class="ruler-major" x1="0" x2="31.2994" y1="891.4286" y2="891.4286" /><line class="ruler" x1="0" x2="22.3567" y1="900.3429" y2="900.3429" /><line class="ruler" x1="0" x2="22.3567" y1="909.2571" y2="909.2571" /><line class="ruler" x1="0" x2="22.3567" y1="918.1714" y2="918.1714" /><line class="ruler" x1="0" x2="22.3567" y1="927.0857" y2="927.0857" /><line class="ruler-major" x1="0" x2="31.2994" y1="936.0" y2="936.0" /><text class="txt" text-anchor="start" x="40.24203821656051" y="936.0">100</text><line class="ruler" x1="0" x2="22.3567" y1="944.9143" y2="944.9143" /><line class="ruler" x1="0" x2="22.3567" y1="953.8286" y2="953.8286" /><line class="ruler" x1="0" x2="22.3567" y1="962.7429" y2="962.7429" /><line class="ruler" x1="0" x2="22.3567" y1="971.6571" y2="971.6571" /><line class="ruler-major" x1="0" x2="31.2994" y1="980.5714" y2="980.5714" /><line class="ruler" x1="0" x2="22.3567" y1="989.4857" y2="989.4857" /><line class="ruler" x1="0" x2="22.3567" y1="998.4" y2="998.4" /><line class="ruler" x1="0" x2="22.3567" y1="1007.3143" y2="1007.3143" /><line class="ruler" x1="0" x2="22.3567" y1="1016.2286" y2="1016.2286" /><line class="ruler-major" x1="0" x2="31.2994" y1="1025.1429" y2="1025.1429" /><text class="txt" text-anchor="start" x="40.24203821656051" y="1025.1428571428573">90</text><line class="ruler" x1="0" x2="22.3567" y1="1034.0571" y2="1034.0571" /><line class="ruler" x1="0" x2="22.3567" y1="1042.9714" y2="1042.9714" /><line class="ruler" x1="0" x2="22.3567" y1="1051.8857" y2="1051.8857" /><line class="ruler" x1="0" x2="22.3567" y1="1060.8" y2="1060.8" /><line class="ruler-major" x1="0" x2="31.2994" y1="1069.7143" y2="1069.7143" /><line class="ruler" x1="0" x2="22.3567" y1="1078.6286" y2="1078.6286" /><line class="ruler" x1="0" x2="22.3567" y1="1087.5429" y2="1087.5429" /><line class="ruler" x1="0" x2="22.3567" y1="1096.4571" y2="1096.4571" /><line class="ruler" x1="0" x2="22.3567" y1="1105.3714" y2="1105.3714" /><line class="ruler-major" x1="0" x2="31.2994" y1="1114.2857" y2="1114.2857" /><text class="txt" text-anchor="start" x="40.24203821656051" y="1114.2857142857142">80</text><line class="ruler" x1="0" x2="22.3567" y1="1123.2" y2="1123.2" /><line class="ruler" x1="0" x2="22.3567" y1="1132.1143" y2="1132.1143" /><line class="ruler" x1="0" x2="22.3567" y1="1141.0286" y2="1141.0286" /><line class="ruler" x1="0" x2="22.3567" y1="1149.9429" y2="1149.9429" /><line class="ruler-major" x1="0" x2="31.2994" y1="1158.8571" y2="1158.8571" /><line class="ruler" x1="0" x2="22.3567" y1="1167.7714" y2="1167.7714" /><line class="ruler" x1="0" x2="22.3567" y1="1176.6857" y2="1176.6857" /><line class="ruler" x1="0" x2="22.3567" y1="1185.6" y2="1185.6" /><line class="ruler" x1="0" x2="22.3567" y1="1194.5143" y2="1194.5143" /><line class="ruler-major" x1="0" x2="31.2994" y1="1203.4286" y2="1203.4286" /><text class="txt" text-anchor="start" x="40.24203821656051" y="1203.4285714285716">70</text><line class="ruler" x1="0" x2="22.3567" y1="1212.3429" y2="1212.3429" /><line class="ruler" x1="0" x2="22.3567" y1="1221.2571" y2="1221.2571" /><line class="ruler" x1="0" x2="22.3567" y1="1230.1714" y2="1230.1714" /><line class="ruler" x1="0" x2="22.3567" y1="1239.0857" y2="1239.0857" /><line class="ruler-major" x1="0" x2="31.2994" y1="1248.0" y2="1248.0" /><line class="ruler" x1="0" x2="22.3567" y1="1256.9143" y2="1256.9143" /><line class="ruler" x1="0" x2="22.3567" y1="1265.8286" y2="1265.8286" /><line class="ruler" x1="0" x2="22.3567" y1="1274.7429" y2="1274.7429" /><line class="ruler" x1="0" x2="22.3567" y1="1283.6571" y2="1283.6571" /><line class="ruler-major" x1="0" x2="31.2994" y1="1292.5714" y2="1292.5714" /><text class="txt" text-anchor="start" x="40.24203821656051" y="1292.5714285714284">60</text><line class="ruler" x1="0" x2="22.3567" y1="1301.4857" y2="1301.4857" /><line class="ruler" x1="0" x2="22.3567" y1="1310.4" y2="1310.4" /><line class="ruler" x1="0" x2="22.3567" y1="1319.3143" y2="1319.3143" /><line class="ruler" x1="0" x2="22.3567" y1="1328.2286" y2="1328.2286" /><line class="ruler-major" x1="0" x2="31.2994" y1="1337.1429" y2="1337.1429" /><line class="ruler" x1="0" x2="22.3567" y1="1346.0571" y2="1346.0571" /><line class="ruler" x1="0" x2="22.3567" y1="1354.9714" y2="1354.9714" /><line class="ruler" x1="0" x2="22.3567" y1="1363.8857" y2="1363.8857" /><line class="ruler" x1="0" x2="22.3567" y1="1372.8" y2="1372.8" /><line class="ruler-major" x1="0" x2="31.2994" y1="1381.7143" y2="1381.7143" /><text class="txt" text-anchor="start" x="40.24203821656051" y="1381.7142857142858">50</text><line class="ruler" x1="0" x2="22.3567" y1="1390.6286" y2="1390.6286" /><line class="ruler" x1="0" x2="22.3567" y1="1399.5429" y2="1399.5429" /><line class="ruler" x1="0" x2="22.3567" y1="1408.4571" y2="1408.4571" /><line class="ruler" x1="0" x2="22.3567" y1="1417.3714" y2="1417.3714" /><line class="ruler-major" x1="0" x2="31.2994" y1="1426.2857" y2="1426.2857" /><line class="ruler" x1="0" x2="22.3567" y1="1435.2" y2="1435.2" /><line class="ruler" x1="0" x2="22.3567" y1="1444.1143" y2="1444.1143" /><line class="ruler" x1="0" x2="22.3567" y1="1453.0286" y2="1453.0286" /><line class="ruler" x1="0" x2="22.3567" y1="1461.9429" y2="1461.9429" /><line class="ruler-major" x1="0" x2="31.2994" y1="1470.8571" y2="1470.8571" /><text class="txt" text-anchor="start" x="40.24203821656051" y="1470.857142857143">40</text><line class="ruler" x1="0" x2="22.3567" y1="1479.7714" y2="1479.7714" /><line class="ruler" x1="0" x2="22.3567" y1="1488.6857" y2="1488.6857" /><line class="ruler" x1="0" x2="22.3567" y1="1497.6" y2="1497.6" /><line class="ruler" x1="0" x2="22.3567" y1="1506.5143" y2="1506.5143" /><line class="ruler-major" x1="0" x2="31.2994" y1="1515.4286" y2="1515.4286" /><line class="ruler" x1="0" x2="22.3567" y1="1524.3429" y2="1524.3429" /><line class="ruler" x1="0" x2="22.3567" y1="1533.2571" y2="1533.2571" /><line class="ruler" x1="0" x2="22.3567" y1="1542.1714" y2="1542.1714" /><line class="ruler" x1="0" x2="22.3567" y1="1551.0857" y2="1551.0857" /><line class="ruler-major" x1="0" x2="31.2994" y1="1560.0" y2="1560.0" /><text class="txt" text-anchor="start" x="40.24203821656051" y="1560.0">30</text><line class="ruler" x1="0" x2="22.3567" y1="1568.9143" y2="1568.9143" /><line class="ruler" x1="0" x2="22.3567" y1="1577.8286" y2="1577.8286" /><line class="ruler" x1="0" x2="22.3567" y1="1586.7429" y2="1586.7429" /><line class="ruler" x1="0" x2="22.3567" y1="1595.6571" y2="1595.6571" /><line class="ruler-major" x1="0" x2="31.2994" y1="1604.5714" y2="1604.5714" /><line class="ruler" x1="0" x2="22.3567" y1="1613.4857" y2="1613.4857" /><line class="ruler" x1="0" x2="22.3567" y1="1622.4" y2="1622.4" /><line class="ruler" x1="0" x2="22.3567" y1="1631.3143" y2="1631.3143" /><line class="ruler" x1="0" x2="22.3567" y1="1640.2286" y2="1640.2286" /><line class="ruler-major" x1="0" x2="31.2994" y1="1649.1429" y2="1649.1429" /><text class="txt" text-anchor="start" x="40.24203821656051" y="1649.142857142857">20</text><line class="ruler" x1="0" x2="22.3567" y1="1658.0571" y2="1658.0571" /><line class="ruler" x1="0" x2="22.3567" y1="1666.9714" y2="1666.9714" /><line class="ruler" x1="0" x2="22.3567" y1="1675.8857" y2="1675.8857" /><line class="ruler" x1="0" x2="22.3567" y1="1684.8" y2="1684.8" /><line class="ruler-major" x1="0" x2="31.2994" y1="1693.7143" y2="1693.7143" /><line class="ruler" x1="0" x2="22.3567" y1="1702.6286" y2="1702.6286" /><line class="ruler" x1="0" x2="22.3567" y1="1711.5429" y2="1711.5429" /><line class="ruler" x1="0" x2="22.3567" y1="1720.4571" y2="1720.4571" /><line class="ruler" x1="0" x2="22.3567" y1="1729.3714" y2="1729.3714" /><line class="ruler-major" x1="0" x2="31.2994" y1="1738.2857" y2="1738.2857" /><text class="txt" text-anchor="start" x="40.24203821656051" y="1738.2857142857144">10</text><line class="ruler" x1="0" x2="22.3567" y1="1747.2" y2="1747.2" /><line class="ruler" x1="0" x2="22.3567" y1="1756.1143" y2="1756.1143" /><line class="ruler" x1="0" x2="22.3567" y1="1765.0286" y2="1765.0286" /><line class="ruler" x1="0" x2="22.3567" y1="1773.9429" y2="1773.9429" /><line class="ruler-major" x1="0" x2="31.2994" y1="1782.8571" y2="1782.8571" /><line class="ruler" x1="0" x2="22.3567" y1="1791.7714" y2="1791.7714" /><line class="ruler" x1="0" x2="22.3567" y1="1800.6857" y2="1800.6857" /><line class="ruler" x1="0" x2="22.3567" y1="1809.6" y2="1809.6" /><line class="ruler" x1="0" x2="22.3567" y1="1818.5143" y2="1818.5143" /><line class="ruler-major" x1="0" x2="31.2994" y1="1827.4286" y2="1827.4286" /><line class="ruler-major" x1="1404" x2="1372.7006" y1="44.5714" y2="44.5714" /><line class="ruler" x1="1404" x2="1381.6433" y1="53.4857" y2="53.4857" /><line class="ruler" x1="1404" x2="1381.6433" y1="62.4" y2="62.4" /><line class="ruler" x1="1404" x2="1381.6433" y1="71.3143" y2="71.3143" /><line class="ruler" x1="1404" x2="1381.6433" y1="80.2286" y2="80.2286" /><line class="ruler-major" x1="1404" x2="1372.7006" y1="89.1429" y2="89.1429" /><line class="ruler" x1="1404" x2="1381.6433" y1="98.0571" y2="98.0571" /><line class="ruler" x1="1404" x2="1381.6433" y1="106.9714" y2="106.9714" /><line class="ruler" x1="1404" x2="1381.6433" y1="115.8857" y2="115.8857" /><line class="ruler" x1="1404" x2="1381.6433" y1="124.8" y2="124.8" /><line class="ruler-major" x1="1404" x2="1372.7006" y1="133.7143" y2="133.7143" /><text class="txt" text-anchor="end" x="1363.7579617834394" y="133.7142857142857">190</text><line class="ruler" x1="1404" x2="1381.6433" y1="142.6286" y2="142.6286" /><line class="ruler" x1="1404" x2="1381.6433" y1="151.5429" y2="151.5429" /><line class="ruler" x1="1404" x2="1381.6433" y1="160.4571" y2="160.4571" /><line class="ruler" x1="1404" x2="1381.6433" y1="169.3714" y2="169.3714" /><line class="ruler-major" x1="1404" x2="1372.7006" y1="178.2857" y2="178.2857" /><line class="ruler" x1="1404" x2="1381.6433" y1="187.2" y2="187.2" /><line class="ruler" x1="1404" x2="1381.6433" y1="196.1143" y2="196.1143" /><line class="ruler" x1="1404" x2="1381.6433" y1="205.0286" y2="205.0286" /><line class="ruler" x1="1404" x2="1381.6433" y1="213.9429" y2="213.9429" /><line class="ruler-major" x1="1404" x2="1372.7006" y1="222.8571" y2="222.8571" /><text class="txt" text-anchor="end" x="1363.7579617834394" y="222.85714285714283">180</text><line class="ruler" x1="1404" x2="1381.6433" y1="231.7714" y2="231.7714" /><line class="ruler" x1="1404" x2="1381.6433" y1="240.6857" y2="240.6857" /><line class="ruler" x1="1404" x2="1381.6433" y1="249.6" y2="249.6" /><line class="ruler" x1="1404" x2="1381.6433" y1="258.5143" y2="258.5143" /><line class="ruler-major" x1="1404" x2="1372.7006" y1="267.4286" y2="267.4286" /><line class="ruler" x1="1404" x2="1381.6433" y1="276.3429" y2="276.3429" /><line class="ruler" x1="1404" x2="1381.6433" y1="285.2571" y2="285.2571" /><line class="ruler" x1="1404" x2="1381.6433" y1="294.1714" y2="294.1714" /><line class="ruler" x1="1404" x2="1381.6433" y1="303.0857" y2="303.0857" /><line class="ruler-major" x1="1404" x2="1372.7006" y1="312.0" y2="312.0" /><text class="txt" text-anchor="end" x="1363.7579617834394" y="312.0">170</text><line class="ruler" x1="1404" x2="1381.6433" y1="320.9143" y2="320.9143" /><line class="ruler" x1="1404" x2="1381.6433" y1="329.8286" y2="329.8286" /><line class="ruler" x1="1404" x2="1381.6433" y1="338.7429" y2="338.7429" /><line class="ruler" x1="1404" x2="1381.6433" y1="347.6571" y2="347.6571" /><line class="ruler-major" x1="1404" x2="1372.7006" y1="356.5714" y2="356.5714" /><line class="ruler" x1="1404" x2="1381.6433" y1="365.4857" y2="365.4857" /><line class="ruler" x1="1404" x2="1381.6433" y1="374.4" y2="374.4" /><line class="ruler" x1="1404" x2="1381.6433" y1="383.3143" y2="383.3143" /><line class="ruler" x1="1404" x2="1381.6433" y1="392.2286" y2="392.2286" /><line class="ruler-major" x1="1404" x2="1372.7006" y1="401.1429" y2="401.1429" /><text class="txt" text-anchor="end" x="1363.7579617834394" y="401.1428571428571">160</text><line class="ruler" x1="1404" x2="1381.6433" y1="410.0571" y2="410.0571" /><line class="ruler" x1="1404" x2="1381.6433" y1="418.9714" y2="418.9714" /><line class="ruler" x1="1404" x2="1381.6433" y1="427.8857" y2="427.8857" /><line class="ruler" x1="1404" x2="1381.6433" y1="436.8" y2="436.8" /><line class="ruler-major" x1="1404" x2="1372.7006" y1="445.7143" y2="445.7143" /><line class="ruler" x1="1404" x2="1381.6433" y1="454.6286" y2="454.6286" /><line class="ruler" x1="1404" x2="1381.6433" y1="463.5429" y2="463.5429" /><line class="ruler" x1="1404" x2="1381.6433" y1="472.4571" y2="472.4571" /><line class="ruler" x1="1404" x2="1381.6433" y1="481.3714" y2="481.3714" /><line class="ruler-major" x1="1404" x2="1372.7006" y1="490.2857" y2="490.2857" /><text class="txt" text-anchor="end" x="1363.7579617834394" y="490.28571428571433">150</text><line class="ruler" x1="1404" x2="1381.6433" y1="499.2" y2="499.2" /><line class="ruler" x1="1404" x2="1381.6433" y1="508.1143" y2="508.1143" /><line class="ruler" x1="1404" x2="1381.6433" y1="517.0286" y2="517.0286" /><line class="ruler" x1="1404" x2="1381.6433" y1="525.9429" y2="525.9429" /><line class="ruler-major" x1="1404" x2="1372.7006" y1="534.8571" y2="534.8571" /><line class="ruler" x1="1404" x2="1381.6433" y1="543.7714" y2="543.7714" /><line class="ruler" x1="1404" x2="1381.6433" y1="552.6857" y2="552.6857" /><line class="ruler" x1="1404" x2="1381.6433" y1="561.6" y2="561.6" /><line class="ruler" x1="1404" x2="1381.6433" y1="570.5143" y2="570.5143" /><line class="ruler-major" x1="1404" x2="1372.7006" y1="579.4286" y2="579.4286" /><text class="txt" text-anchor="end" x="1363.7579617834394" y="579.4285714285714">140</text><line class="ruler" x1="1404" x2="1381.6433" y1="588.3429" y2="588.3429" /><line class="ruler" x1="1404" x2="1381.6433" y1="597.2571" y2="597.2571" /><line class="ruler" x1="1404" x2="1381.6433" y1="606.1714" y2="606.1714" /><line class="ruler" x1="1404" x2="1381.6433" y1="615.0857" y2="615.0857" /><line class="ruler-major" x1="1404" x2="1372.7006" y1="624.0" y2="624.0" /><line class="ruler" x1="1404" x2="1381.6433" y1="632.9143" y2="632.9143" /><line class="ruler" x1="1404" x2="1381.6433" y1="641.8286" y2="641.8286" /><line class="ruler" x1="1404" x2="1381.6433" y1="650.7429" y2="650.7429" /><line class="ruler" x1="1404" x2="1381.6433" y1="659.6571" y2="659.6571" /><line class="ruler-major" x1="1404" x2="1372.7006" y1="668.5714" y2="668.5714" /><text class="txt" text-anchor="end" x="1363.7579617834394" y="668.5714285714286">130</text><line class="ruler" x1="1404" x2="1381.6433" y1="677.4857" y2="677.4857" /><line class="ruler" x1="1404" x2="1381.6433" y1="686.4" y2="686.4" /><line class="ruler" x1="1404" x2="1381.6433" y1="695.3143" y2="695.3143" /><line class="ruler" x1="1404" x2="1381.6433" y1="704.2286" y2="704.2286" /><line class="ruler-major" x1="1404" x2="1372.7006" y1="713.1429" y2="713.1429" /><line class="ruler" x1="1404" x2="1381.6433" y1="722.0571" y2="722.0571" /><line class="ruler" x1="1404" x2="1381.6433" y1="730.9714" y2="730.9714" /><line class="ruler" x1="1404" x2="1381.6433" y1="739.8857" y2="739.8857" /><line class="ruler" x1="1404" x2="1381.6433" y1="748.8" y2="748.8" /><line class="ruler-major" x1="1404" x2="1372.7006" y1="757.7143" y2="757.7143" /><text class="txt" text-anchor="end" x="1363.7579617834394" y="757.7142857142858">120</text><line class="ruler" x1="1404" x2="1381.6433" y1="766.6286" y2="766.6286" /><line class="ruler" x1="1404" x2="1381.6433" y1="775.5429" y2="775.5429" /><line class="ruler" x1="1404" x2="1381.6433" y1="784.4571" y2="784.4571" /><line class="ruler" x1="1404" x2="1381.6433" y1="793.3714" y2="793.3714" /><line class="ruler-major" x1="1404" x2="1372.7006" y1="802.2857" y2="802.2857" /><line class="ruler" x1="1404" x2="1381.6433" y1="811.2" y2="811.2" /><line class="ruler" x1="1404" x2="1381.6433" y1="820.1143" y2="820.1143" /><line class="ruler" x1="1404" x2="1381.6433" y1="829.0286" y2="829.0286" /><line class="ruler" x1="1404" x2="1381.6433" y1="837.9429" y2="837.9429" /><line class="ruler-major" x1="1404" x2="1372.7006" y1="846.8571" y2="846.8571" /><text class="txt" text-anchor="end" x="1363.7579617834394" y="846.8571428571429">110</text><line class="ruler" x1="1404" x2="1381.6433" y1="855.7714" y2="855.7714" /><line class="ruler" x1="1404" x2="1381.6433" y1="864.6857" y2="864.6857" /><line class="ruler" x1="1404" x2="1381.6433" y1="873.6" y2="873.6" /><line class="ruler" x1="1404" x2="1381.6433" y1="882.5143" y2="882.5143" /><line class="ruler-major" x1="1404" x2="1372.7006" y1="891.4286" y2="891.4286" /><line class="ruler" x1="1404" x2="1381.6433" y1="900.3429" y2="900.3429" /><line class="ruler" x1="1404" x2="1381.6433" y1="909.2571" y2="909.2571" /><line class="ruler" x1="1404" x2="1381.6433" y1="918.1714" y2="918.1714" /><line class="ruler" x1="1404" x2="1381.6433" y1="927.0857" y2="927.0857" /><line class="ruler-major" x1="1404" x2="1372.7006" y1="936.0" y2="936.0" /><text class="txt" text-anchor="end" x="1363.7579617834394" y="936.0">100</text><line class="ruler" x1="1404" x2="1381.6433" y1="944.9143" y2="944.9143" /><line class="ruler" x1="1404" x2="1381.6433" y1="953.8286" y2="953.8286" /><line class="ruler" x1="1404" x2="1381.6433" y1="962.7429" y2="962.7429" /><line class="ruler" x1="1404" x2="1381.6433" y1="971.6571" y2="971.6571" /><line class="ruler-major" x1="1404" x2="1372.7006" y1="980.5714" y2="980.5714" /><line class="ruler" x1="1404" x2="1381.6433" y1="989.4857" y2="989.4857" /><line class="ruler" x1="1404" x2="1381.6433" y1="998.4" y2="998.4" /><line class="ruler" x1="1404" x2="1381.6433" y1="1007.3143" y2="1007.3143" /><line class="ruler" x1="1404" x2="1381.6433" y1="1016.2286" y2="1016.2286" /><line class="ruler-major" x1="1404" x2="1372.7006" y1="1025.1429" y2="1025.1429" /><text class="txt" text-anchor="end" x="1363.7579617834394" y="1025.1428571428573">90</text><line class="ruler" x1="1404" x2="1381.6433" y1="1034.0571" y2="1034.0571" /><line class="ruler" x1="1404" x2="1381.6433" y1="1042.9714" y2="1042.9714" /><line class="ruler" x1="1404" x2="1381.6433" y1="1051.8857" y2="1051.8857" /><line class="ruler" x1="1404" x2="1381.6433" y1="1060.8" y2="1060.8" /><line class="ruler-major" x1="1404" x2="1372.7006" y1="1069.7143" y2="1069.7143" /><line class="ruler" x1="1404" x2="1381.6433" y1="1078.6286" y2="1078.6286" /><line class="ruler" x1="1404" x2="1381.6433" y1="1087.5429" y2="1087.5429" /><line class="ruler" x1="1404" x2="1381.6433" y1="1096.4571" y2="1096.4571" /><line class="ruler" x1="1404" x2="1381.6433" y1="1105.3714" y2="1105.3714" /><line class="ruler-major" x1="1404" x2="1372.7006" y1="1114.2857" y2="1114.2857" /><text class="txt" text-anchor="end" x="1363.7579617834394" y="1114.2857142857142">80</text><line class="ruler" x1="1404" x2="1381.6433" y1="1123.2" y2="1123.2" /><line class="ruler" x1="1404" x2="1381.6433" y1="1132.1143" y2="1132.1143" /><line class="ruler" x1="1404" x2="1381.6433" y1="1141.0286" y2="1141.0286" /><line class="ruler" x1="1404" x2="1381.6433" y1="1149.9429" y2="1149.9429" /><line class="ruler-major" x1="1404" x2="1372.7006" y1="1158.8571" y2="1158.8571" /><line class="ruler" x1="1404" x2="1381.6433" y1="1167.7714" y2="1167.7714" /><line class="ruler" x1="1404" x2="1381.6433" y1="1176.6857" y2="1176.6857" /><line class="ruler" x1="1404" x2="1381.6433" y1="1185.6" y2="1185.6" /><line class="ruler" x1="1404" x2="1381.6433" y1="1194.5143" y2="1194.5143" /><line class="ruler-major" x1="1404" x2="1372.7006" y1="1203.4286" y2="1203.4286" /><text class="txt" text-anchor="end" x="1363.7579617834394" y="1203.4285714285716">70</text><line class="ruler" x1="1404" x2="1381.6433" y1="1212.3429" y2="1212.3429" /><line class="ruler" x1="1404" x2="1381.6433" y1="1221.2571" y2="1221.2571" /><line class="ruler" x1="1404" x2="1381.6433" y1="1230.1714" y2="1230.1714" /><line class="ruler" x1="1404" x2="1381.6433" y1="1239.0857" y2="1239.0857" /><line class="ruler-major" x1="1404" x2="1372.7006" y1="1248.0" y2="1248.0" /><line class="ruler" x1="1404" x2="1381.6433" y1="1256.9143" y2="1256.9143" /><line class="ruler" x1="1404" x2="1381.6433" y1="1265.8286" y2="1265.8286" /><line class="ruler" x1="1404" x2="1381.6433" y1="1274.7429" y2="1274.7429" /><line class="ruler" x1="1404" x2="1381.6433" y1="1283.6571" y2="1283.6571" /><line class="ruler-major" x1="1404" x2="1372.7006" y1="1292.5714" y2="1292.5714" /><text class="txt" text-anchor="end" x="1363.7579617834394" y="1292.5714285714284">60</text><line class="ruler" x1="1404" x2="1381.6433" y1="1301.4857" y2="1301.4857" /><line class="ruler" x1="1404" x2="1381.6433" y1="1310.4" y2="1310.4" /><line class="ruler" x1="1404" x2="1381.6433" y1="1319.3143" y2="1319.3143" /><line class="ruler" x1="1404" x2="1381.6433" y1="1328.2286" y2="1328.2286" /><line class="ruler-major" x1="1404" x2="1372.7006" y1="1337.1429" y2="1337.1429" /><line class="ruler" x1="1404" x2="1381.6433" y1="1346.0571" y2="1346.0571" /><line class="ruler" x1="1404" x2="1381.6433" y1="1354.9714" y2="1354.9714" /><line class="ruler" x1="1404" x2="1381.6433" y1="1363.8857" y2="1363.8857" /><line class="ruler" x1="1404" x2="1381.6433" y1="1372.8" y2="1372.8" /><line class="ruler-major" x1="1404" x2="1372.7006" y1="1381.7143" y2="1381.7143" /><text class="txt" text-anchor="end" x="1363.7579617834394" y="1381.7142857142858">50</text><line class="ruler" x1="1404" x2="1381.6433" y1="1390.6286" y2="1390.6286" /><line class="ruler" x1="1404" x2="1381.6433" y1="1399.5429" y2="1399.5429" /><line class="ruler" x1="1404" x2="1381.6433" y1="1408.4571" y2="1408.4571" /><line class="ruler" x1="1404" x2="1381.6433" y1="1417.3714" y2="1417.3714" /><line class="ruler-major" x1="1404" x2="1372.7006" y1="1426.2857" y2="1426.2857" /><line class="ruler" x1="1404" x2="1381.6433" y1="1435.2" y2="1435.2" /><line class="ruler" x1="1404" x2="1381.6433" y1="1444.1143" y2="1444.1143" /><line class="ruler" x1="1404" x2="1381.6433" y1="1453.0286" y2="1453.0286" /><line class="ruler" x1="1404" x2="1381.6433" y1="1461.9429" y2="1461.9429" /><line class="ruler-major" x1="1404" x2="1372.7006" y1="1470.8571" y2="1470.8571" /><text class="txt" text-anchor="end" x="1363.7579617834394" y="1470.857142857143">40</text><line class="ruler" x1="1404" x2="1381.6433" y1="1479.7714" y2="1479.7714" /><line class="ruler" x1="1404" x2="1381.6433" y1="1488.6857" y2="1488.6857" /><line class="ruler" x1="1404" x2="1381.6433" y1="1497.6" y2="1497.6" /><line class="ruler" x1="1404" x2="1381.6433" y1="1506.5143" y2="1506.5143" /><line class="ruler-major" x1="1404" x2="1372.7006" y1="1515.4286" y2="1515.4286" /><line class="ruler" x1="1404" x2="1381.6433" y1="1524.3429" y2="1524.3429" /><line class="ruler" x1="1404" x2="1381.6433" y1="1533.2571" y2="1533.2571" /><line class="ruler" x1="1404" x2="1381.6433" y1="1542.1714" y2="1542.1714" /><line class="ruler" x1="1404" x2="1381.6433" y1="1551.0857" y2="1551.0857" /><line class="ruler-major" x1="1404" x2="1372.7006" y1="1560.0" y2="1560.0" /><text class="txt" text-anchor="end" x="1363.7579617834394" y="1560.0">30</text><line class="ruler" x1="1404" x2="1381.6433" y1="1568.9143" y2="1568.9143" /><line class="ruler" x1="1404" x2="1381.6433" y1="1577.8286" y2="1577.8286" /><line class="ruler" x1="1404" x2="1381.6433" y1="1586.7429" y2="1586.7429" /><line class="ruler" x1="1404" x2="1381.6433" y1="1595.6571" y2="1595.6571" /><line class="ruler-major" x1="1404" x2="1372.7006" y1="1604.5714" y2="1604.5714" /><line class="ruler" x1="1404" x2="1381.6433" y1="1613.4857" y2="1613.4857" /><line class="ruler" x1="1404" x2="1381.6433" y1="1622.4" y2="1622.4" /><line class="ruler" x1="1404" x2="1381.6433" y1="1631.3143" y2="1631.3143" /><line class="ruler" x1="1404" x2="1381.6433" y1="1640.2286" y2="1640.2286" /><line class="ruler-major" x1="1404" x2="1372.7006" y1="1649.1429" y2="1649.1429" /><text class="txt" text-anchor="end" x="1363.7579617834394" y="1649.142857142857">20</text><line class="ruler" x1="1404" x2="1381.6433" y1="1658.0571" y2="1658.0571" /><line class="ruler" x1="1404" x2="1381.6433" y1="1666.9714" y2="1666.9714" /><line class="ruler" x1="1404" x2="1381.6433" y1="1675.8857" y2="1675.8857" /><line class="ruler" x1="1404" x2="1381.6433" y1="1684.8" y2="1684.8" /><line class="ruler-major" x1="1404" x2="1372.7006" y1="1693.7143" y2="1693.7143" /><line class="ruler" x1="1404" x2="1381.6433" y1="1702.6286" y2="1702.6286" /><line class="ruler" x1="1404" x2="1381.6433" y1="1711.5429" y2="1711.5429" /><line class="ruler" x1="1404" x2="1381.6433" y1="1720.4571" y2="1720.4571" /><line class="ruler" x1="1404" x2="1381.6433" y1="1729.3714" y2="1729.3714" /><line class="ruler-major" x1="1404" x2="1372.7006" y1="1738.2857" y2="1738.2857" /><text class="txt" text-anchor="end" x="1363.7579617834394" y="1738.2857142857144">10</text><line class="ruler" x1="1404" x2="1381.6433" y1="1747.2" y2="1747.2" /><line class="ruler" x1="1404" x2="1381.6433" y1="1756.1143" y2="1756.1143" /><line class="ruler" x1="1404" x2="1381.6433" y1="1765.0286" y2="1765.0286" /><line class="ruler" x1="1404" x2="1381.6433" y1="1773.9429" y2="1773.9429" /><line class="ruler-major" x1="1404" x2="1372.7006" y1="1782.8571" y2="1782.8571" /><line class="ruler" x1="1404" x2="1381.6433" y1="1791.7714" y2="1791.7714" /><line class="ruler" x1="1404" x2="1381.6433" y1="1800.6857" y2="1800.6857" /><line class="ruler" x1="1404" x2="1381.6433" y1="1809.6" y2="1809.6" /><line class="ruler" x1="1404" x2="1381.6433" y1="1818.5143" y2="1818.5143" /><line class="ruler-major" x1="1404" x2="1372.7006" y1="1827.4286" y2="1827.4286" /></g><g id="corner"><line class="ruler" x1="0.0" x2="31.2994" y1="0.0" y2="44.5714" /><line class="ruler" x1="1404.0" x2="1372.7006" y1="0.0" y2="44.5714" /><line class="ruler" x1="1404.0" x2="1372.7006" y1="1872.0" y2="1827.4286" /><line class="ruler" x1="0.0" x2="31.2994" y1="1872.0" y2="1827.4286" /><line class="ruler" x1="22.3567" x2="22.3567" y1="0" y2="24.7053" /><line class="ruler" x1="22.3567" x2="22.3567" y1="1872" y2="1847.2947" /><line class="ruler" x1="1381.6433" x2="1381.6433" y1="0" y2="24.7053" /><line class="ruler" x1="1381.6433" x2="1381.6433" y1="1872" y2="1847.2947" /><line class="ruler" x1="13.414" x2="13.414" y1="0" y2="11.9706" /><line class="ruler" x1="13.414" x2="13.414" y1="1872" y2="1860.0294" /><line class="ruler" x1="1390.586" x2="1390.586" y1="0" y2="11.9706" /><line class="ruler" x1="1390.586" x2="1390.586" y1="1872" y2="1860.0294" /><line class="ruler" x1="0" x2="17.8854" y1="35.6571" y2="35.6571" /><line class="ruler" x1="1404" x2="1386.1146" y1="35.6571" y2="35.6571" /><line class="ruler" x1="0" x2="17.8854" y1="1836.3429" y2="1836.3429" /><line class="ruler" x1="1404" x2="1386.1146" y1="1836.3429" y2="1836.3429" /><line class="ruler" x1="0" x2="11.6255" y1="26.7429" y2="26.7429" /><line class="ruler" x1="1404" x2="1392.3745" y1="26.7429" y2="26.7429" /><line class="ruler" x1="0" x2="11.6255" y1="1845.2571" y2="1845.2571" /><line class="ruler" x1="1404" x2="1392.3745" y1="1845.2571" y2="1845.2571" /><line class="ruler" x1="0" x2="5.3656" y1="17.8286" y2="17.8286" /><line class="ruler" x1="1404" x2="1398.6344" y1="17.8286" y2="17.8286" /><line class="ruler" x1="0" x2="5.3656" y1="1854.1714" y2="1854.1714" /><line class="ruler" x1="1404" x2="1398.6344" y1="1854.1714" y2="1854.1714" /></g></svg>