<?xml version="1.0" encoding="utf-8" ?>
<svg baseProfile="tiny" height="1872px" version="1.2" width="1404px" xmlns="http://www.w3.org/2000/svg" xmlns:ev="http://www.w3.org/2001/xml-events" xmlns:xlink="http://www.w3.org/1999/xlink"><defs><style type="text/css"><![CDATA[.grid { stroke: black; stroke-width:1px; }]]></style></defs><rect fill="white" height="1872" width="1404" x="0" y="0" /><g id="hlines"><line class="grid" x1="0" x2="1404" y1="0.0" y2="0.0" /><line class="grid" x1="0" x2="1404" y1="44.5714" y2="44.5714" /><line class="grid" x1="0" x2="1404" y1="89.1429" y2="89.1429" /><line class="grid" x1="0" x2="1404" y1="133.7143" y2="133.7143" /><line class="grid" x1="0" x2="1404" y1="178.2857" y2="178.2857" /><line class="grid" x1="0" x2="1404" y1="222.8571" y2="222.8571" /><line class="grid" x1="0" x2="1404" y1="267.4286" y2="267.4286" /><line class="grid" x1="0" x2="1404" y1="312.0" y2="312.0" /><line class="grid" x1="0" x2="1404" y1="356.5714" y2="356.5714" /><line class="grid" x1="0" x2="1404" y1="401.1429" y2="401.1429" /><line class="grid" x1="0" x2="1404" y1="445.7143" y2="445.7143" /><line class="grid" x1="0" x2="1404" y1="490.2857" y2="490.2857" /><line class="grid" x1="0" x2="1404" y1="534.8571" y2="534.8571" /><line class="grid" x1="0" x2="1404" y1="579.4286" y2="579.4286" /><line class="grid" x1="0" x2="1404" y1="624.0" y2="624.0" /><line class="grid" x1="0" x2="1404" y1="668.5714" y2="668.5714" /><line class="grid" x1="0" x2="1404" y1="713.1429" y2="713.1429" /><line class="grid" x1="0" x2="1404" y1="757.7143" y2="757.7143" /><line class="grid" x1="0" x2="1404" y1="802.2857" y2="802.2857" /><line class="grid" x1="0" x2="1404" y1="846.8571" y2="846.8571" /><line class="grid" x1="0" x2="1404" y1="891.4286" y2="891.4286" /><line class="grid" x1="0" x2="1404" y1="936.0" y2="936.0" /><line class="grid" x1="0" x2="1404" y1="980.5714" y2="980.5714" /><line class="grid" x1="0" x2="1404" y1="1025.1429" y2="1025.1429" /><line class="grid" x1="0" x2="1404" y1="1069.7143" y2="1069.7143" /><line class="grid" x1="0" x2="1404" y1="1114.2857" y2="1114.2857" /><line class="grid" x1="0" x2="1404" y1="1158.8571" y2="1158.8571" /><line class="grid" x1="0" x2="1404" y1="1203.4286" y2="1203.4286" /><line class="grid" x1="0" x2="1404" y1="1248.0" y2="1248.0" /><line class="grid" x1="0" x2="1404" y1="1292.5714" y2="1292.5714" /><line class="grid" x1="0" x2="1404" y1="1337.1429" y2="1337.1429" /><line class="grid" x1="0" x2="1404" y1="1381.7143" y2="1381.7143" /><line class="grid" x1="0" x2="1404" y1="1426.2857" y2="1426.2857" /><line class="grid" x1="0" x2="1404" y1="1470.8571" y2="1470.8571" /><line class="grid" x1="0" x2="1404" y1="1515.4286" y2="1515.4286" /><line class="grid" x1="0" x2="1404" y1="1560.0" y2="1560.0" /><line class="grid" x1="0" x2="1404" y1="1604.5714" y2="1604.5714" /><line class="grid" x1="0" x2="1404" y1="1649.1429" y2="1649.1429" /><line class="grid" x1="0" x2="1404" y1="1693.7143" y2="1693.7143" /><line class="grid" x1="0" x2="1404" y1="1738.2857" y2="1738.2857" /><line class="grid" x1="0" x2="1404" y1="1782.8571" y2="1782.8571" /><line class="grid" x1="0" x2="1404" y1="1827.4286" y2="1827.4286" /><line class="grid" x1="0" x2="1404" y1="1872.0" y2="1872.0" /></g><g id="vlines"><line class="grid" x1="17.8854" x2="17.8854" y1="0" y2="1872" /><line class="grid" x1="62.5987" x2="62.5987" y1="0" y2="1872" /><line class="grid" x1="107.3121" x2="107.3121" y1="0" y2="1872" /><line class="grid" x1="152.0255" x2="152.0255" y1="0" y2="1872" /><line class="grid" x1="196.7389" x2="196.7389" y1="0" y2="1872" /><line class="grid" x1="241.4522" x2="241.4522" y1="0" y2="1872" /><line class="grid" x1="286.1656" x2="286.1656" y1="0" y2="1872" /><line class="grid" x1="330.879" x2="330.879" y1="0" y2="1872" /><line class="grid" x1="375.5924" x2="375.5924" y1="0" y2="1872" /><line class="grid" x1="420.3057" x2="420.3057" y1="0" y2="1872" /><line class="grid" x1="465.0191" x2="465.0191" y1="0" y2="1872" /><line class="grid" x1="509.7325" x2="509.7325" y1="0" y2="1872" /><line class="grid" x1="554.4459" x2="554.4459" y1="0" y2="1872" /><line class="grid" x1="599.1592" x2="599.1592" y1="0" y2="1872" /><line class="grid" x1="643.8726" x2="643.8726" y1="0" y2="1872" /><line class="grid" x1="688.586" x2="688.586" y1="0" y2="1872" /><line class="grid" x1="733.2994" x2="733.2994" y1="0" y2="1872" /><line class="grid" x1="778.0127" x2="778.0127" y1="0" y2="1872" /><line class="grid" x1="822.7261" x2="822.7261" y1="0" y2="1872" /><line class="grid" x1="867.4395" x2="867.4395" y1="0" y2="1872" /><line class="grid" x1="912.1529" x2="912.1529" y1="0" y2="1872" /><line class="grid" x1="956.8662" x2="956.8662" y1="0" y2="1872" /><line class="grid" x1="1001.5796" x2="1001.5796" y1="0" y2="1872" /><line class="grid" x1="1046.293" x2="1046.293" y1="0" y2="1872" /><line class="grid" x1="1091.0064" x2="1091.0064" y1="0" y2="1872" /><line class="grid" x1="1135.7197" x2="1135.7197" y1="0" y2="1872" /><line class="grid" x1="1180.4331" x2="1180.4331" y1="0" y2="1872" /><line class="grid" x1="1225.1465" x2="1225.1465" y1="0" y2="1872" /><line class="grid" x1="1269.8599" x2="1269.8599" y1="0" y2="1872" /><line class="grid" x1="1314.5732" x2="1314.5732" y1="0" y2="1872" /><line class="grid" x1="1359.2866" x2="1359.2866" y1="0" y2="1872" /><line class="grid" x1="1404.0" x2="1404.0" y1="0" y2="1872" /></g></svg>