<?xml version="1.0" encoding="UTF-8" standalone="no"?>
<svg
   xmlns:dc="http://purl.org/dc/elements/1.1/"
   xmlns:cc="http://creativecommons.org/ns#"
   xmlns:rdf="http://www.w3.org/1999/02/22-rdf-syntax-ns#"
   xmlns:svg="http://www.w3.org/2000/svg"
   xmlns="http://www.w3.org/2000/svg"
   xml:space="preserve"
   style="enable-background:new 0 0 1404 1872;"
   viewBox="0 0 1404 1872"
   y="0px"
   x="0px"
   id="Layer_1"
   version="1.1"><metadata
   id="metadata30"><rdf:RDF><cc:Work
       rdf:about=""><dc:format>image/svg+xml</dc:format><dc:type
         rdf:resource="http://purl.org/dc/dcmitype/StillImage" /><dc:title></dc:title></cc:Work></rdf:RDF></metadata><defs
   id="defs28" />
<style
   id="style2"
   type="text/css">
	.st0{fill:#FFFFFF;}
	.st1{fill:none;stroke:#000000;stroke-width:1.0;stroke-miterlimit:10;}
</style>
<g
   transform="translate(-2)"
   id="bg_layer">
	<rect
   style="fill:#ffffff"
   id="rect4"
   height="1872"
   width="1404"
   class="st0"
   y="0"
   x="2" />
</g>


<path
   id="path840"
   style="fill:none;stroke:#000000;stroke-width:0.99968845px"
   d="M 0.49984424,0.49984424 V 1872 M 45.483823,0.49984424 V 1872 M 90.467803,0.49984424 V 1872 M 135.45178,0.49984424 V 1872 M 180.43576,0.49984424 V 1872 M 225.41974,0.49984424 V 1872 M 270.40372,0.49984424 V 1872 M 315.3877,0.49984424 V 1872 M 360.37168,0.49984424 V 1872 M 405.35566,0.49984424 V 1872 M 450.33963,0.49984424 V 1872 M 495.32362,0.49984424 V 1872 M 540.3076,0.49984424 V 1872 M 585.29157,0.49984424 V 1872 M 630.27555,0.49984424 V 1872 M 675.25954,0.49984424 V 1872 M 720.24352,0.49984424 V 1872 M 765.22749,0.49984424 V 1872 M 810.21147,0.49984424 V 1872 M 855.19545,0.49984424 V 1872 M 900.17944,0.49984424 V 1872 M 945.16341,0.49984424 V 1872 M 990.14739,0.49984424 V 1872 M 1035.1314,0.49984424 V 1872 M 1080.1154,0.49984424 V 1872 M 1125.0993,0.49984424 V 1872 M 1170.0833,0.49984424 V 1872 M 1215.0673,0.49984424 V 1872 M 1260.0513,0.49984424 V 1872 M 1305.0353,0.49984424 V 1872 M 1350.0192,0.49984424 V 1872 M 1395.0032,0.49984424 V 1872 M 0.49984424,0.49984424 H 1404 M 0.49984424,45.487829 H 1404 M 0.49984424,90.475813 H 1404 M 0.49984424,135.4638 H 1404 M 0.49984424,180.45178 H 1404 M 0.49984424,225.43977 H 1404 M 0.49984424,270.42775 H 1404 M 0.49984424,315.41574 H 1404 M 0.49984424,360.40372 H 1404 M 0.49984424,405.3917 H 1404 M 0.49984424,450.37969 H 1404 M 0.49984424,495.36767 H 1404 M 0.49984424,540.35566 H 1404 M 0.49984424,585.34364 H 1404 M 0.49984424,630.33163 H 1404 M 0.49984424,675.31961 H 1404 M 0.49984424,720.3076 H 1404 M 0.49984424,765.29558 H 1404 M 0.49984424,810.28357 H 1404 M 0.49984424,855.27155 H 1404 M 0.49984424,900.25953 H 1404 M 0.49984424,945.24752 H 1404 M 0.49984424,990.23551 H 1404 M 0.49984424,1035.2235 H 1404 M 0.49984424,1080.2115 H 1404 M 0.49984424,1125.1995 H 1404 M 0.49984424,1170.1875 H 1404 M 0.49984424,1215.1755 H 1404 M 0.49984424,1260.1634 H 1404 M 0.49984424,1305.1514 H 1404 M 0.49984424,1350.1394 H 1404 M 0.49984424,1395.1274 H 1404 M 0.49984424,1440.1154 H 1404 M 0.49984424,1485.1034 H 1404 M 0.49984424,1530.0913 H 1404 M 0.49984424,1575.0793 H 1404 M 0.49984424,1620.0673 H 1404 M 0.49984424,1665.0553 H 1404 M 0.49984424,1710.0433 H 1404 M 0.49984424,1755.0312 H 1404 M 0.49984424,1800.0192 H 1404 M 0.49984424,1845.0072 H 1404" /></svg>